<?xml version="1.0" encoding="UTF-8"?>
<svg version="1.1" xmlns="http://www.w3.org/2000/svg" width="704" height="652">
<path d="M0 0 C161.04 0 322.08 0 488 0 C488 160.38 488 320.76 488 486 C330.59 486 173.18 486 11 486 C11 441 11 441 17.125 430.375 C21.0078125 426.6171875 21.0078125 426.6171875 23.02441406 424.86230469 C26.57604067 421.51433042 29.20797926 417.4814644 32 413.5 C37.10960148 406.47626209 42.38903553 399.60236767 47.75 392.76953125 C51.93427885 387.41776388 55.99171838 381.98454606 60 376.5 C65.12520016 369.48717031 70.38857816 362.6029506 75.75 355.76953125 C79.93427885 350.41776388 83.99171838 344.98454606 88 339.5 C93.12520016 332.48717031 98.38857816 325.6029506 103.75 318.76953125 C107.93427885 313.41776388 111.99171838 307.98454606 116 302.5 C121.12520016 295.48717031 126.38857816 288.6029506 131.75 281.76953125 C135.93427885 276.41776388 139.99171838 270.98454606 144 265.5 C149.12520016 258.48717031 154.38857816 251.6029506 159.75 244.76953125 C163.93428085 239.41776132 167.99164709 233.98449627 172 228.5 C177.17687146 221.41818465 182.48703462 214.45855813 187.89501953 207.55200195 C192.10638651 202.16793125 196.23387951 196.72817132 200.32080078 191.24926758 C204.51027137 185.63780327 208.7503401 180.0659838 213 174.5 C217.69248129 168.35235324 222.3698459 162.19473914 227 156 C232.30491478 148.9024904 237.67479518 141.85552769 243.05175781 134.8125 C247.80070998 128.58736753 252.51670803 122.33872828 257.1953125 116.06054688 C259.7369167 112.65582564 262.32392735 109.30132327 265 106 C291.10829057 110.27226573 315.3514285 127.01744891 334 145 C334.77859375 145.71542969 335.5571875 146.43085938 336.359375 147.16796875 C366.33934279 175.50010143 381.33824686 220.45221445 383.12426758 260.80786133 C384.9270903 326.10576532 358.08542402 381.24952825 314.9375 428.75 C314.47206787 429.26401367 314.00663574 429.77802734 313.52709961 430.30761719 C310.24261445 433.87869278 310.24261445 433.87869278 308 435 C371.855 435.495 371.855 435.495 437 436 C437 308.62 437 181.24 437 50 C292.79 50 148.58 50 0 50 C0 33.5 0 17 0 0 Z M283 168 C282.06305921 169.1460451 281.17093301 170.32874089 280.296875 171.5234375 C279.73548828 172.28785156 279.17410156 173.05226563 278.59570312 173.83984375 C277.98662109 174.67644531 277.37753906 175.51304687 276.75 176.375 C275.80543945 177.66470703 275.80543945 177.66470703 274.84179688 178.98046875 C270.16520471 185.37508826 265.52599283 191.79661751 260.89746094 198.22607422 C256.96835925 203.67814795 252.99390029 209.09525594 249 214.5 C242.26446941 223.61748366 235.62136363 232.79940769 229 242 C221.79936792 252.00550398 214.55749214 261.97688478 207.23291016 271.89208984 C201.09080366 280.21502749 195.04209317 288.60432215 189 297 C181.79936792 307.00550398 174.55749214 316.97688478 167.23291016 326.89208984 C161.09080366 335.21502749 155.04209317 343.60432215 149 352 C141.79936792 362.00550398 134.55749214 371.97688478 127.23291016 381.89208984 C121.09079319 390.21504168 115.04299184 398.60495625 109 407 C106.68866505 410.20917464 104.37586948 413.41729179 102.0625 416.625 C101.54292725 417.34695557 101.02335449 418.06891113 100.48803711 418.81274414 C99.98796143 419.5061792 99.48788574 420.19961426 98.97265625 420.9140625 C98.48812988 421.58598633 98.00360352 422.25791016 97.50439453 422.95019531 C95.42071565 425.78930078 93.26542635 428.57247608 91.09936523 431.34912109 C89.81524199 432.94687264 89.81524199 432.94687264 90 435 C103.32755401 435.09330065 116.65502841 435.16406665 129.98284435 435.20724869 C136.17365874 435.22798963 142.36424721 435.25605643 148.55493164 435.30175781 C154.54613225 435.34570214 160.53711765 435.3692381 166.52846718 435.37950897 C168.79704481 435.38681418 171.0656127 435.40107487 173.33409691 435.42292023 C208.57468557 435.74832025 242.86154068 426.42086215 270 403 C270.96164062 402.18789063 271.92328125 401.37578125 272.9140625 400.5390625 C279.3780043 394.8942428 284.7101274 388.7334285 290 382 C291.4784579 380.24940117 292.95763159 378.49940662 294.4375 376.75 C321.66835529 343.20610905 337.64253399 300.12084174 333.484375 256.69506836 C330.21794216 226.97393209 318.47938434 195.75939958 295 176 C289.43705546 170.88895559 289.43705546 170.88895559 283 168 Z " fill="#1C4A92" transform="translate(105,87)"/>
<path d="M0 0 C14.52 0 29.04 0 44 0 C48.455 5.445 48.455 5.445 53 11 C54.99109302 13.34246238 56.98637614 15.67739811 59 18 C63.32083327 23.01183755 67.55101386 28.08542574 71.72265625 33.22265625 C74.28203972 36.34396267 76.88589916 39.42453424 79.5 42.5 C82.85447127 46.44650481 86.17221829 50.41642072 89.4375 54.4375 C93.46076591 59.38140513 97.59010357 64.22708932 101.75170898 69.05444336 C104.8712208 72.67349684 107.95050556 76.32168645 111 80 C115.54590145 75.75373424 119.13091678 71.0006272 122.8125 66 C124.14766657 64.20255209 125.48363059 62.40569631 126.8203125 60.609375 C127.85140137 59.22202148 127.85140137 59.22202148 128.90332031 57.80664062 C132.29809947 53.26234845 135.74265682 48.75638856 139.1875 44.25 C143.88141566 38.10339351 148.55692542 31.94447686 153.1875 25.75 C157.48939748 19.99665531 161.82601402 14.2708186 166.1875 8.5625 C167.03574341 7.45116699 167.03574341 7.45116699 167.90112305 6.31738281 C168.68289917 5.29596191 168.68289917 5.29596191 169.48046875 4.25390625 C170.17499146 3.34620483 170.17499146 3.34620483 170.88354492 2.42016602 C172 1 172 1 173 0 C174.90243762 -0.09391296 176.80838459 -0.11743658 178.71313477 -0.11352539 C179.9343251 -0.11344986 181.15551544 -0.11337433 182.41371155 -0.11329651 C183.75627686 -0.10818911 185.09884175 -0.10297311 186.44140625 -0.09765625 C187.80761158 -0.09579199 189.17381757 -0.09436813 190.5400238 -0.09336853 C194.14201695 -0.08954394 197.74397 -0.07971417 201.34594727 -0.06866455 C205.01903745 -0.05844916 208.69213409 -0.05387064 212.36523438 -0.04882812 C219.57684123 -0.03809184 226.788415 -0.02101614 234 0 C232.6577242 2.7381957 231.24743572 5.19184214 229.453125 7.66015625 C228.94523438 8.36140625 228.43734375 9.06265625 227.9140625 9.78515625 C227.36492187 10.53667969 226.81578125 11.28820312 226.25 12.0625 C225.38761719 13.24972656 225.38761719 13.24972656 224.5078125 14.4609375 C219.77964066 20.95961524 215.00933325 27.42725255 210.23339844 33.89086914 C206.28751888 39.23593095 202.38122218 44.60783974 198.5 50 C193.45992181 57.00215242 188.35786615 63.95613256 183.23046875 70.89453125 C179.28584596 76.23857676 175.38030944 81.60910781 171.5 87 C166.45992181 94.00215242 161.35786615 100.95613256 156.23046875 107.89453125 C152.28584472 113.23857844 148.38043404 118.60919616 144.5 124 C138.25812183 132.66800268 131.93959812 141.27786841 125.58203125 149.86132812 C124.11301035 151.84722675 122.64964589 153.83716266 121.1875 155.828125 C120.37527871 156.92728934 119.56280068 158.02626403 118.75 159.125 C118.06421875 160.05570313 117.3784375 160.98640625 116.671875 161.9453125 C115 164 115 164 113 165 C112.47792969 164.35675781 111.95585937 163.71351563 111.41796875 163.05078125 C107.16055865 157.82408339 102.86528826 152.63667066 98.5 147.5 C95.12719816 143.53093394 91.78823463 139.53983111 88.5 135.5 C83.41824323 129.26083244 78.21105894 123.13108038 73 117 C54.44989339 95.17484009 54.44989339 95.17484009 51 90 C51.01162705 91.20289405 51.01162705 91.20289405 51.023489 92.430089 C51.20799313 112.02297666 51.31384943 131.61488188 51.33421898 151.20864582 C51.34592915 160.68458642 51.38339266 170.15906727 51.48339844 179.63452148 C51.57058812 187.90205189 51.6075077 196.16809095 51.58627188 204.43607873 C51.57674291 208.80696771 51.59087818 213.17464645 51.66541672 217.54497719 C52.20640631 251.01734029 52.20640631 251.01734029 39.43399048 264.56718445 C38.5463619 265.4454047 38.5463619 265.4454047 37.64080143 266.34136677 C35.35724703 268.64973825 33.52448491 271.1510304 31.625 273.78125 C30.41795075 275.35515228 29.20965128 276.92809668 28 278.5 C22.10549318 286.19305183 16.30740448 293.94964264 10.60351562 301.78515625 C7.53624448 305.98364589 4.4355463 310.09400052 1 314 C0.67 314 0.34 314 0 314 C0 210.38 0 106.76 0 0 Z " fill="#4C8ABE" transform="translate(113,189)"/>
</svg>
